<!DOCTYPE svg PUBLIC "-//W3C//DTD SVG 1.1//EN" "http://www.w3.org/Graphics/SVG/1.1/DTD/svg11.dtd">
<!-- Uploaded to: SVG Repo, www.svgrepo.com, Transformed by: SVG Repo Mixer Tools -->
<svg width="800px" height="800px" viewBox="-2.4 -2.4 28.80 28.80" fill="none" xmlns="http://www.w3.org/2000/svg">
<g id="SVGRepo_bgCarrier" stroke-width="0">
<path transform="translate(-2.4, -2.4), scale(0.8999999999999999)" d="M16,27.245826749751963C18.28104544472431,27.89195363663265,20.422420404949733,30.64497620749358,22.587911945711753,29.67994011400495C24.720740290409218,28.729460144397507,23.82048194003682,25.20161097434737,25.04647953531961,23.214326692486644C26.090973790019078,21.521250765711024,28.586419482114195,20.90758112264281,29.172552050591133,19.006549046612015C29.756198970346034,17.113578795165733,28.70294180455305,15.127192713002191,28.124026458316756,13.232770077555681C27.57415487818558,11.433389261756652,27.199494434484496,9.456609172101386,25.85268878985659,8.142742881149395C24.529045312602538,6.851472271362895,22.399832831655516,6.965656115587219,20.78192275481934,6.0702350828615135C19.05232830914962,5.11300311619576,17.90384937576749,3.221957175767088,16,2.689841080456972C13.95957759216553,2.1195535260634153,11.692268231606807,2.1812029928220316,9.73059473193721,2.9814458170842855C7.740852465964807,3.793138981489024,5.8822725182758,5.25428922419955,4.95800247324801,7.194300812309965C4.0517771276925,9.096437186062285,5.011162526488341,11.341675009773784,4.751411528744631,13.432583085335686C4.520087901208987,15.294660402011806,3.3240583674383872,16.983614552817254,3.5099325179945566,18.85077639746035C3.7023156685311793,20.78332310801363,4.447855442209021,22.742996172287192,5.815518016526578,24.12185336137233C7.159924464911743,25.477264068090903,9.168521710726843,25.83592231291425,10.993663992813683,26.395763837352902C12.632453998442612,26.89844393193551,14.350735633745526,26.778657604535724,16,27.245826749751963" fill="#00adb5" strokewidth="0"/>
</g>
<g id="SVGRepo_tracerCarrier" stroke-linecap="round" stroke-linejoin="round"/>
<g id="SVGRepo_iconCarrier"> <path d="M20.58 19.37L17.59 11.01C17.38 10.46 16.91 10.12 16.37 10.12C15.83 10.12 15.37 10.46 15.14 11.03L12.16 19.37C12.02 19.76 12.22 20.19 12.61 20.33C13 20.47 13.43 20.27 13.57 19.88L14.19 18.15H18.54L19.16 19.88C19.27 20.19 19.56 20.38 19.87 20.38C19.95 20.38 20.04 20.37 20.12 20.34C20.51 20.2 20.71 19.77 20.57 19.38L20.58 19.37ZM14.74 16.64L16.38 12.05L18.02 16.64H14.74ZM12.19 7.85C9.92999 11.42 7.89 13.58 5.41 15.02C5.29 15.09 5.16 15.12 5.04 15.12C4.78 15.12 4.53 14.99 4.39 14.75C4.18 14.39 4.3 13.93 4.66 13.73C6.75999 12.51 8.48 10.76 10.41 7.86H4.12C3.71 7.86 3.37 7.52 3.37 7.11C3.37 6.7 3.71 6.36 4.12 6.36H7.87V4.38C7.87 3.97 8.21 3.63 8.62 3.63C9.02999 3.63 9.37 3.97 9.37 4.38V6.36H13.12C13.53 6.36 13.87 6.7 13.87 7.11C13.87 7.52 13.53 7.86 13.12 7.86H12.18L12.19 7.85ZM12.23 15.12C12.1 15.12 11.97 15.09 11.85 15.02C11.2 14.64 10.57 14.22 9.97999 13.78C9.64999 13.53 9.58 13.06 9.83 12.73C10.08 12.4 10.55 12.33 10.88 12.58C11.42 12.99 12.01 13.37 12.61 13.72C12.97 13.93 13.09 14.39 12.88 14.75C12.74 14.99 12.49 15.12 12.23 15.12Z" fill="#000000"/> </g>
</svg>