<!DOCTYPE svg PUBLIC "-//W3C//DTD SVG 1.1//EN" "http://www.w3.org/Graphics/SVG/1.1/DTD/svg11.dtd">
<!-- Uploaded to: SVG Repo, www.svgrepo.com, Transformed by: SVG Repo Mixer Tools -->
<svg fill="#222831" width="800px" height="800px" viewBox="-51.2 -51.2 614.40 614.40" xmlns="http://www.w3.org/2000/svg">
<g id="SVGRepo_bgCarrier" stroke-width="0">
<path transform="translate(-51.2, -51.2), scale(19.2)" d="M16,28.34016229212284C18.493855968920904,28.716961745060853,21.13852608988641,28.646725358033105,23.359857664737127,27.45216206710708C25.66072326088647,26.214827843962414,27.664070865631402,24.171006801454002,28.40898610318967,21.66699406982459C29.12455478422651,19.261629006351363,27.34250180541496,16.890564193125204,27.247842561641022,14.382804385363205C27.137048066498885,11.447581466170202,29.23888790854843,8.333273703499268,27.808838433535577,5.767583249737326C26.38037885526102,3.204745272728945,23.081541815154985,2.2322991417572724,20.191929372111307,1.723599631075496C17.475227224731878,1.2453399750558896,14.808547520318548,2.1561764175465172,12.188032511304456,3.0176309686888683C9.645120240107143,3.8535747971513574,6.809847047331153,4.504149189891443,5.2085524499730305,6.649157468621874C3.6361007210336806,8.755529389218909,4.190959514228994,11.646537186372127,3.805315225289082,14.246669027285588C3.4175860970793934,16.860857492720655,1.6648951947401216,19.649180557413555,2.9368388695356256,21.965745794531582C4.2162782064347955,24.29596272912853,7.55383540791614,24.259179517009777,9.94293072911714,25.424983756709942C11.998293206294852,26.427936744290975,13.738652705217735,27.99849283157837,16,28.34016229212284" fill="#00adb5" strokewidth="0"/>
</g>
<g id="SVGRepo_tracerCarrier" stroke-linecap="round" stroke-linejoin="round"/>
<g id="SVGRepo_iconCarrier">
<title>ionicons-v5-g</title>
<path d="M464,384.39a32,32,0,0,1-13-2.77,15.77,15.77,0,0,1-2.71-1.54l-82.71-58.22h0A32,32,0,0,1,352,295.7V216.3a32,32,0,0,1,13.58-26.16l82.71-58.22a15.77,15.77,0,0,1,2.71-1.54,32,32,0,0,1,45,29.24V352.38a32,32,0,0,1-32,32Z"/>
<path d="M268,400H84a68.07,68.07,0,0,1-68-68V180a68.07,68.07,0,0,1,68-68H268.48A67.6,67.6,0,0,1,336,179.52V332A68.07,68.07,0,0,1,268,400Z"/>
</g>
</svg>